<svg xmlns="http://www.w3.org/2000/svg" viewBox="0 0 56.03 82"><title>boy</title><g id="Layer_2" data-name="Layer 2"><g id="Layer_1-2" data-name="Layer 1"><path d="M22.07,34.7a1,1,0,0,0-1.15.63c-.27.92,0,3.18,1.39,2.9,1.07-.21.9-1.75.62-2.49A1.69,1.69,0,0,0,22.07,34.7Z"/><path d="M55.84,42.53a4.92,4.92,0,0,0-4.34-3.15c.14-.35.26-.7.37-1s.15-.45.23-.65a34.74,34.74,0,0,0,1.84-7.22,25.84,25.84,0,0,0-.18-7.23,21.86,21.86,0,0,0-.75-3.6.75.75,0,0,0,.92-.78c-.18-3-3.15-6.76-5.22-8.35a19,19,0,0,0-5.87-2.89c-.27-.09-.55-.16-.82-.23-.51-.13-1.09-.29-1.2-.49a1.13,1.13,0,0,1,.07-.72,8.69,8.69,0,0,1,.8-1.64,6.56,6.56,0,0,0,1.14-3.32.75.75,0,0,0-.9-.74c-2,.4-3.62,2.24-4.63,4a11.81,11.81,0,0,1-.5-3.7A.75.75,0,0,0,35.47.27a5.8,5.8,0,0,0-1.22,4.22,13.4,13.4,0,0,0-6.87-1.62C20.33,2.87,12,6.45,7.31,9.77,3.43,12.5-.42,18.53,0,23.15a.75.75,0,0,0,.52.64l.13,0c0,.47,0,.93-.05,1.4v.46a.75.75,0,0,0,1.06.7c0,.74,0,1.7.13,2.94A29.38,29.38,0,0,0,4.88,39.38C2.66,39.66,1,40.78.46,42.53s0,4.33,3.21,6.36a5.77,5.77,0,0,0,4,.66,4.07,4.07,0,0,1,.64-.05,20,20,0,0,0,7.15,6.64,23.25,23.25,0,0,0,9.17,2.75c0,.73,0,2.18-.07,3.54-.79.19-1.49.4-2.17.62v0l-.6.22h0c-3.65,1.32-5.06,3-6.8,5.46-1.19,1.72-1.59,4.75-1.71,7a33.9,33.9,0,0,0,.17,5.45c.11.85,1.13.85,2,.85.47,0,1.05,0,1.71,0,.84,0,1.81-.06,2.9-.06h1.77c2.25,0,5.36,0,6.61,0h10c.55,0,1.06,0,1.55,0,1.88,0,3,0,3.14-.92a33.54,33.54,0,0,0,0-5.31c-.12-2.24-.52-5.27-1.72-7-1.74-2.44-3.15-4.13-6.8-5.45h0L33.94,63v0c-.68-.22-1.39-.44-2.19-.63-.08-1.36-.12-2.82-.08-3.53a24.78,24.78,0,0,0,9.81-2.77c2.05-1.18,3.71-2.59,6.52-6.62.17,0,.43,0,.64.05a5.75,5.75,0,0,0,4-.66C55.85,46.86,56.4,44.28,55.84,42.53ZM3.29,24.88a.75.75,0,0,0-.8-1.23h0l-.18.08-.1.05a3.67,3.67,0,0,1,.47-1.53.75.75,0,0,0-1.09-1C2.11,17.5,5.18,13.09,8.17,11,12.85,7.7,21,4.37,27.38,4.37a10.85,10.85,0,0,1,7.17,2.16A.75.75,0,0,0,35.78,6c0-.33,0-.65,0-1V4.56l.12.47c.17.69.33,1.34.44,2a.75.75,0,0,0,1.46.1,9.09,9.09,0,0,1,3.31-4.68,10.43,10.43,0,0,1-.69,1.35,9.91,9.91,0,0,0-.93,1.93,2.34,2.34,0,0,0,0,1.9,3.07,3.07,0,0,0,2.14,1.22c.24.06.49.13.73.21a17.66,17.66,0,0,1,5.43,2.65A15.4,15.4,0,0,1,51.89,17a8.25,8.25,0,0,0-1-.61h0a.74.74,0,0,0-.23-.07h0a.75.75,0,0,0-.61.19h0l0,0h0l-.07.11,0,.07h0a.75.75,0,0,0,.36.92h0c.82.43,1.67,2.78,2.05,5.72a24.59,24.59,0,0,1,.18,6.81,33.15,33.15,0,0,1-1.76,6.91c-.08.22-.16.46-.25.71a9.85,9.85,0,0,1-.57,1.44h-.18l0,.26c0,.05-.07.11-.1.16-.63-2.56-2.1-9.41-2.16-10,0-.28-.1-.76-.2-1.35-.18-1.08-.65-3.94-.43-4.44h0a.75.75,0,0,0-1.15-1h0a7.44,7.44,0,0,0-1.39,2.91l-.09.3c-1.72-.91-3.77-4.14-4.79-6l-1.83-5a.75.75,0,0,0-1.45.35,4.32,4.32,0,0,1-1.26,3.21c-2,2.4-6.75,5.05-14.15,5.84a14.07,14.07,0,0,0,1.17-3.24,13.45,13.45,0,0,1,.89-2.6.75.75,0,0,0-1.3-.74A32.29,32.29,0,0,1,16,24.29a17.21,17.21,0,0,1-4.22,2.77l-.86.45a6.83,6.83,0,0,0-.24-2.23.75.75,0,0,0-1.47.25,15.58,15.58,0,0,1-.57,4.28l-.2.82A48.69,48.69,0,0,0,7.37,36c0,.39-.09.77-.14,1.15-.11,1-.21,1.89-.38,2.81l-.24-.51v-.17H6.53A29.41,29.41,0,0,1,3.34,29.14,16,16,0,0,1,3.29,24.88ZM19.93,80.4c-1,0-2,0-2.88.06s-1.82,0-2.19,0a32.8,32.8,0,0,1-.11-4.7c.16-2.89.67-5.1,1.44-6.21,1.53-2.14,2.64-3.55,5.55-4.7A8.65,8.65,0,0,0,24.48,67V80.42H19.93Zm8.44,0H26V67.56a7.25,7.25,0,0,0,2.16.38,8,8,0,0,0,2.22-.39V80.42ZM40.09,69.56c.78,1.12,1.29,3.33,1.45,6.22a38.47,38.47,0,0,1,0,4.6c-.29,0-.8,0-1.71,0h-8V66.94a7.48,7.48,0,0,0,2.68-2.07C37.45,66,38.57,67.43,40.09,69.56ZM51.82,47.63a4.36,4.36,0,0,1-3,.44c-.75-.08-1.52-.17-1.95.44-2.71,3.9-4.25,5.23-6.14,6.31A24.17,24.17,0,0,1,31,57.43h-.46l-.2.41c-.32.67-.22,3.21-.08,5.23l0,.56.54.12c.79.18,1.5.37,2.17.57a8.07,8.07,0,0,1-4.87,2.1,8.09,8.09,0,0,1-4.85-2.11c.66-.2,1.37-.39,2.15-.57l.54-.12,0-.56c.14-2,.24-4.56-.08-5.23l-.2-.41h-.46a22.12,22.12,0,0,1-9.08-2.59,18.61,18.61,0,0,1-6.76-6.33c-.43-.62-1.2-.53-1.95-.44a4.37,4.37,0,0,1-3-.44C2.37,46.31,1.39,44.54,1.88,43c.42-1.29,1.79-2.09,3.66-2.19l.53,1.11.29.61a.75.75,0,0,0,.68.42h.05a.75.75,0,0,0,.66-.52,26,26,0,0,0,.93-5.07c0-.38.08-.75.13-1.14A47.66,47.66,0,0,1,9.89,31l.2-.82.14-.61a.77.77,0,0,0,.25-.09c.67-.4,1.33-.74,2-1.08a18.62,18.62,0,0,0,4.57-3c1-1,2-2,3-3-.47,1.46-1,2.36-1.91,2.4a.75.75,0,1,0,.06,1.5h0c9.38-.4,15.36-3.65,17.83-6.56a7.92,7.92,0,0,0,1-1.56l.95,2.6,0,.1c.74,1.4,3.36,6,6,6.95a1.19,1.19,0,0,0,.39.07A1.16,1.16,0,0,0,45.52,27c.07.5.16,1.06.26,1.68s.16,1,.19,1.24c0,.51.76,3.84,1.22,6,1.26,5.71,1.29,5.87,2,5.87a.94.94,0,0,0,.31,0,2.86,2.86,0,0,0,1.23-.87c1.92.08,3.31.89,3.73,2.19C54.91,44.54,53.92,46.31,51.82,47.63Z"/><path d="M26.55,43.9a.75.75,0,0,0,.69-1,3.65,3.65,0,0,1-.15-2.37.65.65,0,0,1,.42-.41c.81-.28,2.43.37,3.26.84a.75.75,0,0,0,.75-1.3c-.28-.16-2.78-1.55-4.5-1a2.15,2.15,0,0,0-1.32,1.27,5.19,5.19,0,0,0,.16,3.51A.74.74,0,0,0,26.55,43.9Z"/><path d="M23,30.11a.75.75,0,0,0,.24-1.48,6.51,6.51,0,0,0-7,2.93.75.75,0,1,0,1.32.71A5.07,5.07,0,0,1,23,30.11Z"/><path d="M34.78,35.32a1,1,0,0,0-1.15-.63,1.67,1.67,0,0,0-.86,1c-.28.74-.45,2.28.62,2.49C34.8,38.5,35.05,36.24,34.78,35.32Z"/><path d="M32.44,28.63a.75.75,0,0,0,.24,1.48,5,5,0,0,1,5.39,2.16.75.75,0,0,0,1.32-.72A6.51,6.51,0,0,0,32.44,28.63Z"/><path d="M36.23,43.64S34,44.86,28,44.86c-6.37,0-8.85-1.21-8.9-1.24a.75.75,0,0,0-.7,1.33c.11.06,2.74,1.41,9.6,1.41,6.42,0,8.86-1.36,9-1.42a.75.75,0,0,0-.74-1.3Z"/></g></g></svg>