<svg xmlns="http://www.w3.org/2000/svg" viewBox="0 0 738.4 977.25"><title>girl</title><g id="Layer_2" data-name="Layer 2"><g id="Layer_1-2" data-name="Layer 1"><path d="M448.42,512.29s-2.59,1.25-6.46,3.34l-9.23,4c-2.35.88-4.91,1.82-7.08,2.59-1.39.37-2.78.8-4.24,1.23a75.6,75.6,0,0,1-7.93,2.07A131.66,131.66,0,0,1,400,528.06a56.39,56.39,0,0,1-7.71.88c-2.16.16-4.32.33-6,.55-3.11.24-6.47.29-9.76.35l-4.88.13-5.62-.17c-3.22-.07-6.4-.14-9.22-.41-2-.27-4.09-.45-6.11-.61a65.39,65.39,0,0,1-8.56-1.11l-13.55-2.72a68.15,68.15,0,0,1-7.05-2c-1.55-.49-3.07-1-3.83-1.16l-9.5-3.51-7.1-3.24c-4.34-2.34-6.89-3.58-6.89-3.58a9,9,0,1,0-7.93,16.24c.08,0,2.39,1.18,6.79,3.52L312.15,539c1.27.35,2.56.76,3.88,1.18a82.78,82.78,0,0,0,8.69,2.41l14,2.8a83.1,83.1,0,0,0,10.44,1.37c1.76.14,3.53.3,5.62.57,3.56.34,7.18.43,10.8.52l6,.17,5.28-.12c3.65-.06,7.39-.13,11.31-.46,1.82-.24,3.66-.36,5.47-.51a75.29,75.29,0,0,0,9.56-1.12,136.93,136.93,0,0,0,14.26-2.68,85.89,85.89,0,0,0,9.23-2.41l4.27-1.25c2.91-1,5.62-2,8.11-2.93l11-4.81c3.82-2,6.15-3.18,6.23-3.22a9,9,0,1,0-7.85-16.22Z"/><path d="M275.37,381.36c-5.58-2.81-13.17.48-15.65,6-5,11.15-5.68,40.28,12.67,39.13,13.87-.87,14.46-20.67,12.09-30.53C283.21,390.58,280.62,384,275.37,381.36Z"/><path d="M453.68,426.47c18.35.9,17.26-28.22,12.11-39.3-2.53-5.45-10.2-8.63-15.74-5.76-5.21,2.71-7.7,9.33-8.9,14.69C438.93,406,439.79,425.79,453.68,426.47Z"/><path d="M348.53,494.33A34.39,34.39,0,0,0,359.83,496a56.76,56.76,0,0,0,23.06-5.24c13.33-5.92,19.77-18,16-30-2.88-9.27-7.22-14.32-11-18.78-5.53-6.45-10.76-12.54-11.22-38.16a9.05,9.05,0,0,0-9-8.88h-.17a9,9,0,0,0-8.87,9.2c.53,29.77,7.08,39.71,15.57,49.61,3.21,3.72,5.74,6.68,7.51,12.39,1.43,4.56-5.3,7.7-6.08,8-12.46,5.52-20.35,3.27-20.93,3.1a9,9,0,0,0-6.1,17Z"/><path d="M630,562.24c12.72,1.45,31.89,3.64,50.76-8.34,41-25.83,48-58.65,40.81-80.76a51.6,51.6,0,0,0-7.38-14.08c53.25-125.18,15.36-296.56-82.85-369.63l-4.87-3.63c-35.68-26.55-72.58-54-115.54-67.19C428.35-6.7,340.43-6.18,263.41,20.1c-8,2.75-15.61,7-21.71,10.47-2.24,1.25-4.15,2.31-5.83,3.17C163,47.12,102.13,87.25,59.94,150c-54,80.33-73,190.22-50.86,294,1.1,5.2,2.29,10.35,3.54,15.48a8.89,8.89,0,0,0,5,5.93,50.25,50.25,0,0,0-5.07,15c-4.46,26.47,11.45,54,42.54,73.55,18.84,12,38,9.81,50.8,8.37,2.83-.31,6.51-.72,8.52-.69.49.71,1,1.34,1.45,2a6.75,6.75,0,0,0-.66.33c-11.52,8.92-134.33,124.82-111.32,168a9.22,9.22,0,0,0,1.45,2c-1.82,10-1.8,20.3,2.65,31.77C12.63,777.72,18.37,782,23,783.29c5.64,14.54,16.28,29,25.4,36.5,10.19,8.37,17.66,7.77,22.17,5.82a14.94,14.94,0,0,0,4.87-3.41l1.34,1.65c6.51,8,15.15,18.72,30.53,18.72a36.5,36.5,0,0,0,6-.51c10.19-1.71,18.2-9.58,25.28-16.53,1-1,2.07-2,3.07-3,15.74,3,26.9,1.72,35.88-3.93,13.11-8.28,18.42-24.94,22.22-41.72,4.62-20.37,12.13-95.68,12.51-123,44.19,21,93,26.53,111.22,27.88.69,9.85.12,30.4-1,48.88-2.21,1.71-4.39,3.24-6.59,4.68-2.81-3.18-4.52-5.56-4.57-5.63A9.08,9.08,0,0,0,301.11,726c-34,10.35-52.54,20.68-55,30.71a10.87,10.87,0,0,0-.18,1.52c-20.85,13.2-51.46,38.32-60,76.3-13.09,57.76-7.28,131.29-7,134.39a9,9,0,0,0,9,8.31H548a9,9,0,0,0,9-8.31c.25-3.1,6.06-76.63-7-134.39a91.49,91.49,0,0,0-3.29-10.44c6.26.27,13.28-.71,21.47-3.07,1.08.84,2.21,1.76,3.33,2.69,7.71,6.27,16.43,13.36,26.74,14.08,1,.07,1.87.1,2.76.1,17.48,0,25.75-12.43,31.86-21.61.4-.6.8-1.21,1.21-1.8a14.74,14.74,0,0,0,5.18,2.94c4.69,1.52,12.16,1.4,21.5-7.87,8.38-8.31,17.63-23.71,21.88-38.71,4.5-1.69,9.82-6.51,13.37-19,3.35-11.84,2.4-22.13-.34-31.88a9.71,9.71,0,0,0,1.24-2.11c17.51-41.85-27.33-70.31-51.52-85.68-19.56-12.42-34.5-22-51.08-34.58,8.2-9.86,17.1-21.61,27.21-36.08A78.78,78.78,0,0,1,630,562.24ZM74.93,160.08C114.66,101,172,63.36,240.66,51.16a7.14,7.14,0,0,0,1.13-.45,10.56,10.56,0,0,0,1.22-.3c2.12-1,4.7-2.47,7.59-4.1,5.44-3.07,12.22-6.91,18.65-9.1,73.44-25.07,157.42-25.53,236.43-1.3,40,12.25,75.59,38.77,110,64.4l4.89,3.63c90.4,67.27,125.92,224,79.6,341.47-14.22-9.69-33.75-14.56-56.52-13.07a1.76,1.76,0,0,0-.24.06,8.76,8.76,0,0,0-3.07.83c-.2.1-.36.24-.57.35a8.57,8.57,0,0,0-1.4.89c.57-12.78.27-29.07-.46-49.23-.22-5.65-.37-10.25-.37-13,0-28.06-4.34-36.64-36.88-48a219.87,219.87,0,0,1-28.78-12.57,8.7,8.7,0,0,0-5-.8,110,110,0,0,0-33.64-19,8.78,8.78,0,0,0-3.4-3.57C507.43,276,457.75,239.86,431.72,215a9,9,0,0,0-13.65,11.73c11.27,16,34.52,43.72,51.81,62a109.94,109.94,0,0,0-25.22,9.63,8.74,8.74,0,0,0-3.88-1.25c-63-3.93-116.08-49.32-150.51-83.14a9,9,0,0,0-14.5,10.32c6.89,14.55,16.94,29.12,25.81,42,1.74,2.51,3.42,5,5.06,7.38-23.08-10.8-50-32.67-67.57-56.34-14.86-20-21.7-39.27-19.23-54.33a9,9,0,0,0-15.38-7.77c-28.72,29.4-49.87,55.05-70.71,85.76-14.93,22-30.85,57.85-41.55,84-5.91,14.36-9.8,29.88-12.25,48.89a8.93,8.93,0,0,0,1.46,6c-1.08,9.69-1.87,19.42-2.56,28.88-.86,11.91-1.74,24.07-3.39,36.1-.1-.43-.19-.86-.28-1.29A8.93,8.93,0,0,0,68.89,437a8.87,8.87,0,0,0-8.12-2.36c-12.73,3-23.43,8.5-31.62,15.9-.8-3.44-1.63-6.86-2.36-10.34C5.57,341.11,23.58,236.41,74.93,160.08ZM496.58,303.46a92.1,92.1,0,1,1-92.09,92.09A92.19,92.19,0,0,1,496.58,303.46ZM182.1,772.89c-4,17.51-8.22,26.62-14.24,30.41-5.35,3.35-13.89,3.57-26.84.63a9.08,9.08,0,0,0-7.74,1.82c-2.33,1.92-4.8,4.32-7.39,6.86-4.92,4.82-11,10.82-15.57,11.6-8.53,1.35-12.29-2.84-19.49-11.76-3.81-4.71-8.14-10-13.91-13.87a9,9,0,0,0-14,7,21.14,21.14,0,0,1-.24,2.27c-3-1.82-8.29-6.42-14.22-15.06A76,76,0,0,1,38.54,773c.86-3.92.59-9-1.51-15.32A8.9,8.9,0,0,0,28,751.54,9.07,9.07,0,0,0,23,753.32c-2.13-9.93.27-19.2,3.6-29.89a9.06,9.06,0,0,0-4.79-10.87,8.93,8.93,0,0,0-2.42-.75C28,677.2,99.84,598.63,126.2,578.19c0,0,0-.06.07-.08,28,37.74,46.94,53.7,69,66.74a8.81,8.81,0,0,0-1.15,4.44C194.85,669.23,186.74,752.39,182.1,772.89ZM300.43,745.2c7.24,8.69,23.41,24.81,46.07,28.37l9.32,35.81c-17.78-3.46-52.75-14.51-89.61-49.65C272.41,755.77,286,750,300.43,745.2ZM367.93,829h0c1.9,0,38.56-.63,83.77-31.55V959.17H284.11V797.46C329.67,828.56,366.64,828.89,367.93,829Zm128.3-106.33c1,17,2.31,29.88,5.68,43.73-4.22-3.17-8.17-5.8-11.93-8.17a11.22,11.22,0,0,0-.18-1.54c-2.5-10-21-20.36-55-30.71a9.11,9.11,0,0,0-10.16,3.63s-.9,1.25-2.19,2.86c-3.6-1.94-7-3.88-9.16-5.26-1.29-22.63-1.36-38-.87-45.5,15.16-1.12,51.66-5.1,89-18.59l0,1.31A209.23,209.23,0,0,1,498.84,688C497.21,699.15,495.54,710.72,496.24,722.72Zm-60.8,22.48c14.42,4.76,28,10.57,34.2,14.54-36.86,35.14-71.83,46.19-89.61,49.65l9.32-35.81C412,770,428.2,753.88,435.44,745.2Zm-232,93.35c7.12-31.46,33.29-53,51.53-64.68q5.55,5.23,11,9.81V959.17H196.3C195.19,938.37,193.48,882.64,203.47,838.54ZM539.54,959.17H469.81V783.7c3.66-3.06,7.33-6.34,11-9.82,18.24,11.62,44.41,33.2,51.54,64.68C542.37,882.64,540.65,938.37,539.54,959.17Zm96.27-311.61c23.87,15.15,46.62,31.52,46.85,51.6a9.21,9.21,0,0,0-5.47,1.21,9.06,9.06,0,0,0-3.77,11.28C677.74,722,681,731,679.82,741.09a8.71,8.71,0,0,0-5.1-1.33,9,9,0,0,0-8.44,7c-1.48,6.49-1.27,11.55,0,15.37a76.09,76.09,0,0,1-8,20.55c-5.1,9.14-9.93,14.24-12.75,16.32a22.22,22.22,0,0,1-.45-2.22,9,9,0,0,0-14.6-5.64c-5.42,4.36-9.25,10.09-12.6,15.14-6.33,9.52-9.55,14.05-18.29,13.49-4.6-.33-11.27-5.74-16.61-10.08-2.8-2.28-5.5-4.45-8-6.14a9,9,0,0,0-7.87-1.08c-17.56,5.77-24.28,3.62-28.13,1.11-5.67-3.68-10.5-12.36-15.67-28.16-6-18.45-7.71-32-9-53.76-.6-10.16.87-20.33,2.43-31.1a231.76,231.76,0,0,0,2.71-25.53l.07-2.65c.08-2.83.16-4.59.33-6.7,6.18-2.8,12.28-5.89,18.23-9.32a180.47,180.47,0,0,0,44.27-35.11C599.9,624.62,615.38,634.58,635.82,647.56Zm-28.1-97.82c-34.8,50-54.5,67-78.68,80.94-53.31,30.7-123.81,33.39-124.5,33.4a9,9,0,0,0-7.85,5.12c-1.24,2.57-4.52,9.41-1.27,62.75.24,3.82,1.29,6.76,13.33,13.67-7.14,5.35-16.25,10.11-26.92,10.54a9,9,0,0,0-8.39,6.76l-5.51,21.17-5.51-21.17a9.05,9.05,0,0,0-8.39-6.76c-9.35-.36-17.59-4.06-24.29-8.56,2.42-1.74,4.83-3.5,7.26-5.51a9.06,9.06,0,0,0,3.22-6.32c1.45-21,3.24-57.68-1-66.55a9,9,0,0,0-7.86-5.13c-.71,0-71.09-2.64-124.52-33.41-24.19-13.91-43.89-30.92-78.65-80.93-5.32-7.65-14.57-6.61-24.37-5.47-11.39,1.28-25.57,2.91-39.08-5.69C40,523,27.17,502.36,30.38,483.33c2.27-13.46,12.86-24.14,28.69-29.42.9,3.78,1.78,7.3,2.59,10.19C65.26,477,70.14,483,77,483h.18c4-.06,9.33-2.21,11.79-12.1,5-20.33,6.5-40.91,7.92-60.8.81-11.16,1.64-22.7,3.1-33.85a8.85,8.85,0,0,0-1.24-5.54c2.24-14.81,5.46-27.36,10.17-38.79,14.9-36.37,28.66-64.27,39.79-80.7a560.67,560.67,0,0,1,54-67.88c3,14.21,10.31,29.39,21.84,44.88,26.41,35.49,70.77,66.33,101,70.23a8.89,8.89,0,0,0,8.43-3.6,9,9,0,0,0,.94-9.12,136.81,136.81,0,0,0-10.45-17.88c28,21,61.45,39.46,99,45.59A109.87,109.87,0,0,0,387.7,380c-6.8-4.79-14-7.59-21.75-7.82-14.43-.58-26.83,7.22-34.29,13.37a101.87,101.87,0,1,0,.45,11.23c4.35-4.38,17.83-16.45,33.59-15.95,7.43.23,14.45,3.38,21,9.15-.1,1.86-.28,3.69-.28,5.57A110.17,110.17,0,1,0,591.64,340c1,.39,2.07.86,3.12,1.23,24.77,8.65,24.77,9.92,24.77,30.94,0,2.93.18,7.75.39,13.69.55,15.32,2.24,61.92-2.27,69.08a9,9,0,0,0,12.2,13.36c2.25-2,4.52-3.85,6.71-5.57,4.56-3.59,9.21-7.32,12.86-12.43,28.13-.61,49,9.93,55,28.37,6.46,19.95-6.28,42.91-33.28,59.91-13.49,8.57-27.65,7-39,5.67C622.29,543.17,613,542.11,607.72,549.74ZM314.05,395.55a83.44,83.44,0,1,1-83.45-83.43A83.53,83.53,0,0,1,314.05,395.55Z"/></g></g></svg>