<?xml version="1.0" encoding="utf-8"?>
<!-- Generator: Adobe Illustrator 21.1.0, SVG Export Plug-In . SVG Version: 6.00 Build 0)  -->
<svg version="1.1" id="Layer_1" xmlns="http://www.w3.org/2000/svg" xmlns:xlink="http://www.w3.org/1999/xlink" x="0px" y="0px"
	 viewBox="0 0 775 247.5" style="enable-background:new 0 0 775 247.5;" xml:space="preserve">
<style type="text/css">
	.st0{fill:#474848;}
</style>
<title>mask</title>
<g id="Layer_2">
	<g id="Layer_1-2">
		<path class="st0" d="M387,125.1c-41-233-260-71-387-61c170,94,76,226,387,170c312,56,218-76,388-170C644,54.1,429-105.9,387,125.1
			z M344,189.1c-54-2-103,16-138-42c-16-27,116-69,144,35C352,187.1,348,189.1,344,189.1z M568,147.1c-34,58-83,40-137,42
			c-5,0-8-2-7-7C453,74.1,583,123.1,568,147.1z"/>
	</g>
</g>
</svg>
