<svg xmlns="http://www.w3.org/2000/svg" viewBox="0 0 36.3 50.87"><title>Asset 1</title><g id="Layer_2" data-name="Layer 2"><g id="Layer_1-2" data-name="Layer 1"><path d="M18.51,20.57h2.35a.53.53,0,1,0,0-1.06H18.51a.53.53,0,1,0,0,1.06Z"/><path d="M3.69,20.57H9.63a.53.53,0,0,0,0-1.06H3.69a.53.53,0,0,0,0,1.06Z"/><path d="M18.51,22.74h3.35a.53.53,0,0,0,0-1.06H18.51a.53.53,0,1,0,0,1.06Z"/><path d="M3.69,22.74h4a.53.53,0,1,0,0-1.06h-4a.53.53,0,0,0,0,1.06Z"/><path d="M18.51,24.91h1.75a.53.53,0,0,0,0-1.06H18.51a.53.53,0,0,0,0,1.06Z"/><path d="M3.69,24.91h6.61a.53.53,0,0,0,0-1.06H3.69a.53.53,0,0,0,0,1.06Z"/><path d="M18.51,27.08h1.73a.53.53,0,1,0,0-1.06H18.51a.53.53,0,1,0,0,1.06Z"/><path d="M3.69,27.08h7.8a.53.53,0,0,0,0-1.06H3.69a.53.53,0,0,0,0,1.06Z"/><path d="M18.51,29.25h.73a.53.53,0,0,0,0-1.06h-.73a.53.53,0,1,0,0,1.06Z"/><path d="M3.69,29.25h5.2a.53.53,0,1,0,0-1.06H3.69a.53.53,0,0,0,0,1.06Z"/><path d="M18.51,45.4h5a.53.53,0,1,0,0-1.06h-5a.53.53,0,1,0,0,1.06Z"/><path d="M18.51,47.57h3.71a.53.53,0,0,0,0-1.06H18.51a.53.53,0,1,0,0,1.06Z"/><path d="M18.51,31.42H21a.53.53,0,1,0,0-1.06H18.51a.53.53,0,1,0,0,1.06Z"/><path d="M3.69,31.42h6.69a.53.53,0,1,0,0-1.06H3.69a.53.53,0,1,0,0,1.06Z"/><path d="M18.51,33.59h1.25a.53.53,0,1,0,0-1.06H18.51a.53.53,0,1,0,0,1.06Z"/><path d="M3.69,33.59H8a.53.53,0,1,0,0-1.06H3.69a.53.53,0,1,0,0,1.06Z"/><path d="M18.51,35.76h3.94a.53.53,0,0,0,0-1.06H18.51a.53.53,0,1,0,0,1.06Z"/><path d="M3.69,35.76H7A.53.53,0,1,0,7,34.7H3.69a.53.53,0,1,0,0,1.06Z"/><path d="M18.51,37.93h2a.53.53,0,1,0,0-1.06h-2a.53.53,0,1,0,0,1.06Z"/><path d="M3.69,37.93h8.52a.53.53,0,1,0,0-1.06H3.69a.53.53,0,1,0,0,1.06Z"/><path d="M36.29,6.6v0a.52.52,0,0,0,0-.13v0a.52.52,0,0,0-.09-.12L30,.15,29.89.08l0,0-.1,0H.53A.53.53,0,0,0,0,.53V50.34a.53.53,0,0,0,.53.53H35.77a.53.53,0,0,0,.53-.53V6.68S36.29,6.63,36.29,6.6ZM30,1.68,34.32,6l-4.73-.54ZM14.79,49.81H1.06V42.23H14.79Zm11.89,0H15.85V42.23H26.68Zm0-9.75H1.06V17.39H26.68Zm8.55,9.75H27.74V17.39h7.49Zm0-34.59H1.06V1.06H29l-.55,4.79a.53.53,0,0,0,.47.59l6.29.72v8.07Z"/><path d="M7.73,11.28a2.05,2.05,0,0,1-2-1.45H8.39V8.61H5.49c0-.14,0-.28,0-.45s0-.27,0-.41h2.9V6.52H5.74A2.09,2.09,0,0,1,7.72,5,2.17,2.17,0,0,1,9.49,6l.94-1A3.22,3.22,0,0,0,7.75,3.66,3.57,3.57,0,0,0,4.2,6.53h-1V7.75H4C4,7.89,4,8,4,8.16s0,.3,0,.45H3.18V9.83h1a3.5,3.5,0,0,0,3.52,2.79,3.76,3.76,0,0,0,2.82-1.25l-.93-1A2.48,2.48,0,0,1,7.73,11.28Z"/><path d="M28.39,7.16A1.2,1.2,0,0,1,28.12,7a.07.07,0,0,0-.08.1,1.37,1.37,0,0,0,.71.3l5.69.66h0A.07.07,0,0,0,34.51,8a.07.07,0,0,0-.06-.07l-5.69-.66A1.23,1.23,0,0,1,28.39,7.16Z"/></g></g></svg>